<?xml version="1.0" standalone="no"?>
<!DOCTYPE svg PUBLIC "-//W3C//DTD SVG 1.1//EN" "http://www.w3.org/Graphics/SVG/1.1/DTD/svg11.dtd" >
<svg xmlns="http://www.w3.org/2000/svg" xmlns:xlink="http://www.w3.org/1999/xlink" version="1.1">
<metadata>
Created by FontForge 20150824 at Sat Jun  4 02:11:57 2016
 By Everything Fonts
Copyright (c) 1990-2000 ParaType, Inc. All Rights Reserved. ITC Avant Garde Gothic is a registered trade mark of International Typeface Corporation.
</metadata>
<defs>
<font id="AvantGardeGothicCItalic" horiz-adv-x="554" >
  <font-face 
    font-family="AvantGardeGothicCItalic"
    font-weight="400"
    font-style="italic"
    font-stretch="normal"
    units-per-em="1000"
    panose-1="0 0 5 0 0 0 0 0 0 0"
    ascent="786"
    descent="-214"
    x-height="547"
    cap-height="740"
    bbox="-394 -214 1149 952"
    underline-thickness="50"
    underline-position="-150"
    slope="-11"
    unicode-range="U+0020-2122"
  />
<missing-glyph horiz-adv-x="233" 
 />
    <glyph glyph-name=".notdef" horiz-adv-x="233" 
 />
    <glyph glyph-name=".null" horiz-adv-x="0" 
 />
    <glyph glyph-name="nonmarkingreturn" horiz-adv-x="333" 
 />
    <glyph glyph-name="space" unicode=" " horiz-adv-x="233" 
 />
    <glyph glyph-name="space" unicode="&#xa0;" horiz-adv-x="233" 
 />
    <glyph glyph-name="exclam" unicode="!" horiz-adv-x="295" 
d="M102 193l106 547h74l-106 -547h-74zM64 0l24 126h74l-24 -126h-74z" />
    <glyph glyph-name="quotedbl" unicode="&#x22;" horiz-adv-x="309" 
d="M124 514l44 226h52l-44 -226h-52zM235 514l44 226h52l-44 -226h-52z" />
    <glyph glyph-name="numbersign" unicode="#" 
d="M265 0h-43l74 250h-90l-74 -250h-42l74 250h-149l16 58h150l36 123h-149l16 58h151l73 251h42l-72 -251h89l74 251h41l-73 -251h150l-16 -58h-151l-36 -123h150l-17 -58h-151zM314 308l35 123h-90l-36 -123h91z" />
    <glyph glyph-name="dollar" unicode="$" 
d="M186 -100l25 129q-10 1 -24 4.5t-39 16.5t-43 33q-40 45 -40 113q0 11 2 31h70q-2 -10 -2 -30q0 -44 29 -74q33 -34 95 -34q63 0 99 31q41 35 41 96q0 59 -45 97q-15 13 -61 39q-31 17 -50.5 31t-42.5 36.5t-34 52.5t-11 67q0 85 58 138q52 45 123 48l24 125h65l-24 -125
q50 -7 87 -45q43 -43 43 -105q0 -21 -2 -32h-70q2 16 2 24q0 45 -30 73q-29 25 -82 25t-85 -31q-35 -33 -35 -91q0 -27 9 -48.5t27.5 -38t30 -23.5t33.5 -19q31 -16 49.5 -28t44 -35t38 -54.5t12.5 -70.5q0 -94 -66 -150q-57 -48 -131 -47l-25 -129h-65z" />
    <glyph glyph-name="percent" unicode="%" horiz-adv-x="775" 
d="M157 0l436 740h72l-436 -740h-72zM264 753q72 0 117 -45q41 -42 41 -110q0 -86 -57 -141q-54 -54 -139 -54q-70 0 -113 45q-41 42 -41 110q0 86 57 141q56 54 135 54zM236 469q49 0 83 35q33 35 33 89q0 41 -25 68q-25 26 -69 26q-49 0 -83 -35q-33 -35 -33 -89
q0 -41 25 -68q25 -26 69 -26zM592 337q72 0 117 -45q41 -42 41 -110q0 -86 -57 -141q-54 -54 -139 -54q-70 0 -113 45q-41 42 -41 110q0 86 57 141q56 54 135 54zM564 53q49 0 83 35q33 35 33 89q0 41 -25 68q-25 26 -69 26q-49 0 -83 -35q-33 -35 -33 -89q0 -41 25 -68
q25 -26 69 -26z" />
    <glyph glyph-name="ampersand" unicode="&#x26;" horiz-adv-x="757" 
d="M647 480h83l-184 -263l150 -182l-61 -48l-136 165l-33 -43q-94 -122 -227 -122q-87 0 -140 54t-53 137q0 57 23 103.5t61 76t72 46.5t71 28q-63 69 -63 146q0 78 54 126.5t137 48.5q70 0 111.5 -38.5t41.5 -103.5t-45 -120t-122 -83l113 -140zM311 379l-38 -14
q-148 -55 -148 -180q0 -60 34.5 -95.5t86.5 -35.5q93 0 172 104l36 47zM337 471l9 -11q51 16 92.5 53.5t41.5 91.5q0 37 -23.5 59t-63.5 22q-49 0 -79 -28.5t-30 -73.5q0 -22 9 -44.5t17.5 -34.5t26.5 -34z" />
    <glyph glyph-name="quotesingle" unicode="'" horiz-adv-x="198" 
d="M124 514l44 226h50l-44 -226h-50z" />
    <glyph glyph-name="parenleft" unicode="(" horiz-adv-x="369" 
d="M429 740l-14 -68q-155 -80 -231 -229q-55 -107 -55 -219q0 -93 32 -163q37 -80 112 -122l-13 -65q-98 42 -152 133q-53 88 -53 202q0 145 72 270q15 27 35.5 54.5t57 68t91.5 77.5t118 61z" />
    <glyph glyph-name="parenright" unicode=")" horiz-adv-x="369" 
d="M-44 -126l14 68q155 80 231 229q55 107 55 219q0 93 -32 163q-37 80 -112 122l13 65q98 -42 152 -133q53 -88 53 -202q0 -145 -72 -270q-15 -27 -35.5 -54.5t-57 -68t-91.5 -77.5t-118 -61z" />
    <glyph glyph-name="asterisk" unicode="*" horiz-adv-x="425" 
d="M431 633l-10 -51h-100l36 -88l-51 -28l-37 90l-69 -90l-43 28l71 88h-103l10 51h103l-36 90l53 28l34 -90l72 90l41 -28l-71 -90h100z" />
    <glyph glyph-name="plus" unicode="+" horiz-adv-x="606" 
d="M276 341v214h76v-214h214v-76h-214v-214h-76v214h-214v76h214z" />
    <glyph glyph-name="comma" unicode="," horiz-adv-x="277" 
d="M-20 -67l126 193h74l-126 -193h-74z" />
    <glyph glyph-name="hyphen" unicode="-" horiz-adv-x="332" 
d="M46 334h271l-13 -67h-271z" />
    <glyph glyph-name="hyphen" unicode="&#xad;" horiz-adv-x="332" 
d="M46 334h271l-13 -67h-271z" />
    <glyph glyph-name="period" unicode="." horiz-adv-x="277" 
d="M53 0l24 126h74l-24 -126h-74z" />
    <glyph glyph-name="slash" unicode="/" horiz-adv-x="437" 
d="M-37 -128l458 868h72l-460 -868h-70z" />
    <glyph glyph-name="zero" unicode="0" 
d="M33 265l48 248q4 22 9 38.5t17 48.5t31.5 55.5t48 48t73 37t98.5 12.5q97 -1 156 -52t59 -141q0 -57 -6 -87l-48 -248q-5 -25 -11 -46.5t-26 -60t-47.5 -65t-78 -47t-114.5 -19.5q-97 1 -156 52t-59 139q0 57 6 87zM155 513l-48 -248q-6 -31 -6 -78q0 -12 2 -24.5
t10.5 -33.5t23.5 -36.5t44.5 -27t69.5 -11.5q161 0 194 171l48 248q6 31 6 78q0 12 -2 25t-10.5 34t-23.5 36.5t-44.5 27t-69.5 11.5q-161 0 -194 -172z" />
    <glyph glyph-name="one" unicode="1" 
d="M284 0l120 616l-233 -246l-48 50l305 320h74l-144 -740h-74z" />
    <glyph glyph-name="two" unicode="2" 
d="M-16 0l13 66l338 275q7 6 30 24t31.5 25.5t26.5 24t26 28.5t18 29t14 35t4 38q0 65 -37 104q-35 37 -104 37q-87 0 -140 -68q-38 -50 -43 -116h-74q5 95 63 163q75 88 204 88q90 0 144 -49q61 -55 61 -157q0 -27 -5 -51t-18 -46.5t-22 -37.5t-31.5 -35.5t-32 -29t-37 -30
t-33.5 -26.5l-277 -224h363l-13 -67h-469z" />
    <glyph glyph-name="three" unicode="3" 
d="M197 557h-74q9 76 58 129q65 67 169 67q72 0 117 -40q50 -44 50 -117q0 -68 -35.5 -112t-90.5 -61q113 -39 113 -180q0 -116 -73 -185q-77 -71 -196 -71q-89 0 -145 50q-63 56 -63 144q0 33 2 50h74q-2 -14 -2 -41q0 -65 45 -103q39 -33 102 -33q81 0 134 55
q48 48 48 124q0 86 -55 128q-36 27 -95 27h-33l13 67h29q71 0 112 35q42 35 42 94q0 50 -33 79q-26 23 -76 23q-58 0 -96 -39q-34 -34 -41 -90z" />
    <glyph glyph-name="four" unicode="4" 
d="M336 0l26 135h-374l15 75l457 530h94l-105 -538h77l-13 -67h-77l-26 -135h-74zM375 202l85 435l-371 -435h286z" />
    <glyph glyph-name="five" unicode="5" 
d="M79 375l138 365h344l-13 -67h-284l-79 -206q57 36 134 36q107 0 165 -74q49 -61 49 -168q0 -114 -78 -192q-82 -82 -217 -82q-105 0 -166 67q-53 58 -53 136q0 28 2 42h74q-2 -13 -2 -38q0 -52 38 -93q43 -47 116 -47q98 0 157 64q55 60 55 140q0 83 -42 130
q-43 48 -115 48q-109 0 -168 -82z" />
    <glyph glyph-name="six" unicode="6" 
d="M375 740h88l-218 -246q35 8 66 8q107 0 170 -65q62 -63 62 -169q0 -123 -80 -202t-209 -79q-105 0 -169 63t-64 170q0 114 90 218zM294 435q-88 0 -144 -61q-55 -60 -55 -147q0 -75 42 -124q44 -49 122 -49q92 0 151 58q59 57 59 148q0 82 -48 130q-44 45 -127 45z" />
    <glyph glyph-name="seven" unicode="7" 
d="M57 0l433 673h-346l13 67h426l-13 -67l-429 -673h-84z" />
    <glyph glyph-name="eight" unicode="8" 
d="M205 421q-38 24 -53 59t-15 64q0 92 58 150q59 59 161 59q80 0 126 -46q49 -49 49 -128q0 -58 -33 -104t-89 -70q48 -23 73.5 -67t25.5 -99q0 -110 -66 -179q-71 -73 -197 -73q-88 0 -146 49q-68 57 -68 160q0 81 47 143t127 82zM288 375q-76 0 -126 -45
q-57 -51 -57 -127q0 -71 43 -112q39 -37 106 -37q83 0 134 53q47 49 47 129q0 56 -37 97q-39 42 -110 42zM343 686q-55 0 -89 -30q-43 -38 -43 -102q0 -48 24 -77q29 -35 80 -35q67 0 107 42q35 37 35 86q0 55 -28 86q-29 30 -86 30z" />
    <glyph glyph-name="nine" unicode="9" 
d="M230 0h-88l217 245q-35 -8 -66 -8q-107 0 -170 65q-62 63 -62 169q0 123 80 203q79 79 209 79q109 0 171 -63q62 -64 62 -171q0 -115 -90 -218zM310 304q88 0 144 61q55 61 55 147q0 76 -40 123q-43 51 -124 51q-97 0 -153 -58q-57 -59 -57 -149q0 -80 48 -130
q44 -45 127 -45z" />
    <glyph glyph-name="colon" unicode=":" horiz-adv-x="277" 
d="M53 0l24 126h74l-24 -126h-74zM128 384l24 126h74l-24 -126h-74z" />
    <glyph glyph-name="semicolon" unicode=";" horiz-adv-x="277" 
d="M-20 -67l126 193h74l-126 -193h-74zM156 384l24 126h74l-24 -126h-74z" />
    <glyph glyph-name="less" unicode="&#x3c;" horiz-adv-x="606" 
d="M154 301l414 -191v-73l-509 232v64l509 232v-73z" />
    <glyph glyph-name="equal" unicode="=" horiz-adv-x="606" 
d="M566 436v-75h-504v75h504zM566 241v-75h-504v75h504z" />
    <glyph glyph-name="greater" unicode="&#x3e;" horiz-adv-x="606" 
d="M473 301l-414 191v73l509 -232v-64l-509 -232v73z" />
    <glyph glyph-name="question" unicode="?" horiz-adv-x="591" 
d="M174 510h-74q9 112 84 180q70 63 180 63q99 0 152 -55q50 -53 50 -135q0 -43 -11 -77t-34 -59.5t-38.5 -38.5t-44.5 -33q-37 -26 -56.5 -42t-41 -48.5t-28.5 -71.5h-74q8 68 43 111.5t96 85.5q39 27 59.5 44.5t38 50.5t17.5 74q0 58 -37 93q-36 34 -95 34q-80 0 -129 -47
q-51 -49 -57 -129zM200 0l24 126h74l-24 -126h-74z" />
    <glyph glyph-name="at" unicode="@" horiz-adv-x="867" 
d="M647 578l-63 -319q-4 -20 -4 -34q0 -30 36 -30q61 0 108 78q41 68 41 154q0 121 -83.5 200.5t-230.5 79.5q-154 0 -242 -94.5t-88 -235.5q0 -149 94 -246.5t240 -97.5q128 0 245 71l24 -39q-122 -78 -271 -78q-170 0 -276.5 106t-106.5 278q0 164 102 273t282 109
q172 0 267 -92.5t95 -231.5q0 -101 -50 -178q-29 -46 -72 -74t-88 -28q-30 0 -53 18t-25 49q-23 -33 -58.5 -50t-70.5 -17q-72 0 -124 48t-52 138q0 107 50 176q63 87 172 87q95 0 128 -67l10 47h64zM404 201q68 0 110 74q35 60 35 143q0 11 -0.5 21.5t-6 31.5t-15 36
t-29.5 27t-48 12q-81 0 -124 -75q-33 -56 -33 -136q0 -68 32.5 -101t78.5 -33z" />
    <glyph glyph-name="A" unicode="A" horiz-adv-x="740" 
d="M-39 0l463 740h82l173 -740h-80l-58 248h-341l-155 -248h-84zM242 315h283l-77 339z" />
    <glyph glyph-name="B" unicode="B" horiz-adv-x="574" 
d="M24 0l144 740h183q105 0 152 -36q61 -46 61 -132q0 -62 -34.5 -111t-95.5 -70q103 -39 103 -157q0 -124 -102 -188q-74 -46 -200 -46h-211zM111 67h137q95 0 146 33q69 45 69 128q0 70 -51 104q-37 24 -118 24h-127zM180 423h119q79 0 122 24q69 39 69 119q0 52 -37 82
q-31 25 -115 25h-109z" />
    <glyph glyph-name="C" unicode="C" horiz-adv-x="813" 
d="M812 551h-84q-57 135 -242 135q-153 0 -247 -94q-103 -103 -103 -261q0 -115 69 -191q79 -86 220 -86q82 0 152 34.5t111 104.5h88q-28 -56 -69.5 -97t-79 -61.5t-83 -32t-70 -13.5t-50.5 -2q-184 0 -281 108q-81 90 -81 229q0 193 128 318q68 66 145.5 88.5t167.5 22.5
q245 0 309 -202z" />
    <glyph glyph-name="D" unicode="D" horiz-adv-x="744" 
d="M24 0l144 740h203q168 0 254 -72q97 -83 97 -240q0 -105 -39 -190t-105 -140q-116 -98 -316 -98h-238zM111 67h164q159 0 257 86q55 48 85.5 120t30.5 151q0 123 -76 188q-43 37 -94.5 49t-119.5 12h-129z" />
    <glyph glyph-name="E" unicode="E" horiz-adv-x="536" 
d="M24 0l144 740h406l-13 -67h-332l-52 -267h321l-13 -67h-321l-53 -272h332l-13 -67h-406z" />
    <glyph glyph-name="F" unicode="F" horiz-adv-x="485" 
d="M24 0l144 740h375l-13 -67h-301l-52 -268h290l-13 -67h-290l-66 -338h-74z" />
    <glyph glyph-name="G" unicode="G" horiz-adv-x="872" 
d="M852 544h-84q-60 142 -258 142q-163 0 -264 -94q-110 -101 -110 -261q0 -118 71 -191q82 -86 229 -86q144 0 235 79q66 58 89 141h-419l13 67h498q-23 -151 -119 -244q-114 -110 -304 -110q-183 0 -284 108q-83 90 -83 225q0 200 135 322q121 111 330 111q22 0 41 -1.5
t55 -7t66 -19.5t63 -35.5t59 -59t41 -86.5z" />
    <glyph glyph-name="H" unicode="H" horiz-adv-x="683" 
d="M24 0l144 740h74l-64 -326h383l64 326h74l-144 -740h-74l67 347h-383l-67 -347h-74z" />
    <glyph glyph-name="I" unicode="I" horiz-adv-x="226" 
d="M24 0l144 740h74l-144 -740h-74z" />
    <glyph glyph-name="J" unicode="J" horiz-adv-x="482" 
d="M498 740l-101 -518q-8 -41 -13 -60.5t-17.5 -49t-30.5 -51.5q-62 -74 -176 -74q-90 0 -133 54q-35 44 -35 108q0 17 1 26h74q-1 -8 -1 -23q0 -11 2.5 -23t11 -31t31 -31.5t55.5 -12.5q69 0 110 48q30 35 47 120l101 518h74z" />
    <glyph glyph-name="K" unicode="K" horiz-adv-x="591" 
d="M24 0l144 740h74l-83 -428l431 428h96l-369 -369l226 -371h-92l-193 320l-121 -118l-39 -202h-74z" />
    <glyph glyph-name="L" unicode="L" horiz-adv-x="462" 
d="M24 0l144 740h74l-131 -673h306l-13 -67h-380z" />
    <glyph glyph-name="M" unicode="M" horiz-adv-x="919" 
d="M24 0l144 740h115l146 -628l391 628h115l-144 -740h-74l128 657l-407 -657h-62l-150 657l-128 -657h-74z" />
    <glyph glyph-name="N" unicode="N" horiz-adv-x="740" 
d="M24 0l144 740h96l298 -614l120 614h74l-144 -740h-74l-314 650l-126 -650h-74z" />
    <glyph glyph-name="O" unicode="O" horiz-adv-x="869" 
d="M507 753q166 0 258 -106q82 -94 82 -235q0 -192 -133 -315q-119 -110 -310 -110q-169 0 -260 105q-82 93 -82 234q0 89 36 172.5t104 145.5q121 109 305 109zM414 54q148 0 250 99q109 106 109 259q0 110 -68 188q-76 86 -206 86q-146 0 -251 -100q-55 -52 -83.5 -121
t-28.5 -139q0 -109 69 -187q42 -47 92 -66t117 -19z" />
    <glyph glyph-name="P" unicode="P" horiz-adv-x="592" 
d="M24 0l144 740h222q108 0 163 -46q63 -52 63 -153q0 -125 -92 -191q-75 -53 -198 -53h-170l-58 -297h-74zM229 673l-60 -309h169q88 0 140 39q64 47 64 136q0 65 -41 102q-36 32 -121 32h-151z" />
    <glyph glyph-name="Q" unicode="Q" horiz-adv-x="871" 
d="M821 54l-13 -67q-94 -4 -158 62q-105 -62 -245 -62q-170 0 -261 105q-82 93 -82 234q0 89 36 172.5t104 145.5q121 109 306 109q165 0 259 -106q82 -93 82 -235q0 -192 -137 -317q44 -44 109 -41zM157 216q64 -162 258 -162q103 0 185 48q-130 137 -304 137
q-73 0 -139 -23zM140 280q80 26 173 26q193 0 346 -159q57 49 86.5 120.5t29.5 144.5q0 110 -68 188q-76 86 -207 86q-148 0 -252 -100q-56 -54 -84 -122.5t-28 -137.5q0 -16 4 -46z" />
    <glyph glyph-name="R" unicode="R" horiz-adv-x="607" 
d="M24 0l144 740h217q125 0 182 -54q59 -54 59 -158q0 -127 -100 -198q-71 -50 -171 -55l154 -275h-86l-186 335h59q122 0 183 44q73 51 73 151q0 67 -42 105t-138 38h-143l-131 -673h-74z" />
    <glyph glyph-name="S" unicode="S" horiz-adv-x="498" 
d="M13 207h74q-2 -18 -2 -28q0 -59 40 -94q35 -31 99 -31q74 0 119 34q49 38 49 104q0 74 -58 119q-21 16 -69 40q-32 16 -54 31t-48 39.5t-39.5 59t-13.5 77.5q0 85 59 139q61 56 162 56q95 0 142 -45q46 -44 46 -130q0 -9 -2 -25h-74q2 18 2 27q0 51 -30 79q-29 27 -87 27
q-61 0 -97 -27q-47 -36 -47 -95q0 -31 11.5 -56t33.5 -44t36.5 -28.5t39.5 -22.5q39 -20 58.5 -32.5t48 -38t41.5 -60.5t13 -82q0 -104 -73 -161q-67 -52 -175 -52q-92 0 -145 44q-62 53 -62 153q0 7 2 23z" />
    <glyph glyph-name="T" unicode="T" horiz-adv-x="426" 
d="M126 0l131 673h-169l13 67h412l-13 -67h-169l-131 -673h-74z" />
    <glyph glyph-name="U" unicode="U" horiz-adv-x="655" 
d="M168 740h74l-88 -450q-8 -45 -8 -82q0 -70 38 -112t110 -42q93 0 146 59q43 47 69 177l88 450h74l-88 -450q-9 -48 -17 -80.5t-31 -80t-54 -76.5q-71 -66 -195 -66q-100 0 -157 60t-57 160q0 38 8 83z" />
    <glyph glyph-name="V" unicode="V" horiz-adv-x="702" 
d="M266 0l-161 740h80l134 -644l382 644h84l-449 -740h-70z" />
    <glyph glyph-name="W" unicode="W" horiz-adv-x="960" 
d="M170 0l-66 740h80l56 -639l295 639h74l53 -639l298 639h84l-354 -740h-97l-45 606l-281 -606h-97z" />
    <glyph glyph-name="X" unicode="X" horiz-adv-x="609" 
d="M-36 0l321 381l-172 359h86l138 -296l244 296h92l-303 -364l187 -376h-88l-151 314l-262 -314h-92z" />
    <glyph glyph-name="Y" unicode="Y" horiz-adv-x="592" 
d="M211 0l48 247l-159 493h80l131 -414l285 414h84l-347 -493l-48 -247h-74z" />
    <glyph glyph-name="Z" unicode="Z" horiz-adv-x="480" 
d="M-33 0l13 67l476 606h-347l13 67h435l-13 -67l-476 -606h369l-13 -67h-457z" />
    <glyph glyph-name="bracketleft" unicode="[" horiz-adv-x="351" 
d="M253 -50l-15 -76q-68 19 -112 74q-42 54 -42 133q0 31 9 80l56 289q13 65 36.5 116t73.5 96q65 58 147 78l-15 -78q-49 -11 -89 -49q-60 -56 -81 -163l-54 -277q-9 -49 -9 -81q0 -63 30 -99q24 -29 65 -43z" />
    <glyph glyph-name="backslash" unicode="\" horiz-adv-x="605" 
d="M343 0l-166 740h71l165 -740h-70z" />
    <glyph glyph-name="bracketright" unicode="]" horiz-adv-x="351" 
d="M117 664l15 76q68 -19 112 -74q42 -54 42 -133q0 -31 -9 -80l-56 -289q-13 -65 -36.5 -116t-73.5 -96q-65 -58 -147 -78l15 78q49 11 89 49q60 56 81 163l54 277q9 49 9 81q0 63 -30 99q-24 29 -65 43z" />
    <glyph glyph-name="asciicircum" unicode="^" horiz-adv-x="604" 
d="M302 664l-220 -484h-64l255 560h58l255 -560h-64z" />
    <glyph glyph-name="underscore" unicode="_" horiz-adv-x="500" 
d="M500 -125h-500v58h500v-58z" />
    <glyph glyph-name="grave" unicode="`" horiz-adv-x="378" 
d="M207 779l177 -108l-43 -58l-177 106z" />
    <glyph glyph-name="a" unicode="a" horiz-adv-x="683" 
d="M676 547l-105 -547h-70l13 66h-2q-69 -79 -203 -79q-108 0 -175 56q-89 74 -89 203q0 151 109 242q87 72 220 72q22 0 45.5 -4t56 -15t61.5 -37.5t46 -66.5h2l21 110h70zM360 493q-104 0 -172.5 -69t-68.5 -176q0 -84 52 -139t143 -55q105 0 171.5 69.5t66.5 175.5
q0 91 -52.5 142.5t-139.5 51.5z" />
    <glyph glyph-name="b" unicode="b" horiz-adv-x="682" 
d="M156 740h74l-49 -255h2q61 75 195 75q102 0 167 -55q88 -73 88 -208q0 -146 -99 -235q-85 -75 -213 -75q-157 0 -216 121h-2l-20 -108h-70zM367 493q-101 0 -165 -68t-64 -171q0 -96 52 -148t137 -52q104 0 168 68.5t64 172.5q0 88 -51.5 143t-140.5 55z" />
    <glyph glyph-name="c" unicode="c" horiz-adv-x="647" 
d="M513 160h82q-13 -29 -32 -55t-52.5 -55t-87 -46t-119.5 -17q-114 0 -183 64q-76 70 -76 188q0 150 100 241q87 80 226 80q62 0 109.5 -17.5t74 -46.5t40 -56.5t20.5 -58.5h-80q-14 52 -61.5 82t-113.5 30q-104 0 -172 -69q-69 -72 -69 -179q0 -90 60 -144q53 -47 141 -47
q63 0 115.5 28t77.5 78z" />
    <glyph glyph-name="d" unicode="d" horiz-adv-x="685" 
d="M719 740l-144 -740h-70l13 66h-2q-71 -79 -211 -79q-104 0 -171 56q-89 74 -89 203q0 151 109 242q87 72 212 72q151 0 220 -114h2l57 294h74zM360 493q-105 0 -173 -68t-68 -173q0 -87 52.5 -142.5t142.5 -55.5q107 0 174.5 69t67.5 174q0 93 -53.5 144.5t-142.5 51.5z
" />
    <glyph glyph-name="e" unicode="e" horiz-adv-x="650" 
d="M597 247h-483q-3 -90 55 -146q48 -47 131 -47q81 0 142 46q42 32 62 78h80q-31 -80 -94 -129q-79 -62 -195 -62q-115 0 -184 75q-66 72 -66 177q0 72 26 137t74 108q84 76 219 76q112 0 174 -69q63 -70 63 -190q0 -30 -4 -54zM125 314h397q0 67 -40 119q-48 60 -133 60
q-94 0 -157 -58q-52 -49 -67 -121z" />
    <glyph glyph-name="f" unicode="f" horiz-adv-x="314" 
d="M58 0l93 480h-95l13 67h95l2 11q33 182 221 182h15l-13 -67h-15q-38 0 -65.5 -13t-41 -34.5t-19 -36.5t-8.5 -31l-2 -11h126l-13 -67h-126l-93 -480h-74z" />
    <glyph glyph-name="g" unicode="g" horiz-adv-x="673" 
d="M666 547l-96 -485q-25 -125 -94 -193q-84 -83 -220 -83q-97 0 -163.5 54t-81.5 147h74q13 -57 56.5 -95.5t121.5 -38.5q104 0 169 68q55 57 70 141h-2q-72 -75 -195 -75q-107 0 -172 56q-88 74 -88 206q0 148 108 239q85 72 207 72q159 0 213 -123h2l21 110h70zM355 493
q-102 0 -169 -69t-67 -174q0 -85 51 -140.5t140 -55.5q102 0 167 69t65 174q0 93 -51.5 144.5t-135.5 51.5z" />
    <glyph glyph-name="h" unicode="h" horiz-adv-x="610" 
d="M13 0l144 740h74l-51 -260h2q78 80 188 80q85 0 135 -49q55 -53 55 -146q0 -41 -7 -77l-56 -288h-74l56 288q7 32 7 69q0 60 -32 98t-94 38q-83 0 -141 -51q-27 -24 -44.5 -57t-21 -49t-12.5 -59l-54 -277h-74z" />
    <glyph glyph-name="i" unicode="i" horiz-adv-x="200" 
d="M13 0l106 547h74l-106 -547h-74zM132 614l25 126h74l-25 -126h-74z" />
    <glyph glyph-name="j" unicode="j" horiz-adv-x="203" 
d="M196 547l-98 -505q-8 -39 -14 -63.5t-24.5 -64t-44.5 -62.5q-52 -46 -135 -46q-11 0 -35 2l13 71q9 -1 26 -1q53 0 87 33q33 34 53 131l98 505h74zM135 614l25 126h74l-25 -126h-74z" />
    <glyph glyph-name="k" unicode="k" horiz-adv-x="502" 
d="M13 0l144 740h74l-101 -520l312 327h95l-263 -274l173 -273h-93l-136 218l-111 -114l-20 -104h-74z" />
    <glyph glyph-name="l" unicode="l" horiz-adv-x="200" 
d="M13 0l144 740h74l-144 -740h-74z" />
    <glyph glyph-name="m" unicode="m" horiz-adv-x="938" 
d="M13 0l106 547h70l-10 -55h2q65 68 165 68q69 0 112 -37q34 -30 43 -68q27 42 73 69q61 36 134 36q78 0 126 -44q54 -48 54 -135q0 -32 -8 -69l-61 -312h-74l61 313q8 46 8 66q0 53 -30.5 83.5t-85.5 30.5q-73 0 -125 -54q-42 -44 -59 -126l-61 -313h-74l61 313q8 37 8 68
q0 51 -31 81.5t-85 30.5q-73 0 -125 -54q-42 -44 -59 -126l-61 -313h-74z" />
    <glyph glyph-name="n" unicode="n" horiz-adv-x="610" 
d="M13 0l106 547h70l-13 -67h2q77 80 190 80q87 0 137 -49q55 -55 55 -154q0 -37 -7 -69l-56 -288h-74l56 288q7 32 7 69q0 60 -32 98t-94 38q-83 0 -141 -51q-27 -24 -44.5 -57t-21 -49t-12.5 -59l-54 -277h-74z" />
    <glyph glyph-name="o" unicode="o" horiz-adv-x="655" 
d="M361 560q110 0 176 -64q69 -67 69 -188q0 -146 -94 -238q-86 -83 -223 -83q-109 0 -174 64q-70 68 -70 188q0 148 102 243q83 78 214 78zM357 493q-101 0 -166 -65q-72 -72 -72 -179q0 -96 46 -145q47 -50 128 -50q106 0 170 64q69 69 69 180q0 94 -48 146
q-46 49 -127 49z" />
    <glyph glyph-name="p" unicode="p" horiz-adv-x="682" 
d="M-24 -192l143 739h70l-13 -66h2q64 79 198 79q102 0 169 -55q88 -73 88 -208q0 -146 -99 -235q-85 -75 -213 -75q-152 0 -213 114h-2l-56 -293h-74zM367 493q-100 0 -164.5 -68t-64.5 -175q0 -93 51.5 -144.5t137.5 -51.5q104 0 168 68.5t64 172.5q0 88 -51.5 143
t-140.5 55z" />
    <glyph glyph-name="q" unicode="q" horiz-adv-x="682" 
d="M675 547l-143 -739h-74l48 250h-2q-71 -71 -199 -71q-105 0 -171 56q-89 74 -89 207q0 148 109 238q87 72 210 72q164 0 218 -123h2l21 110h70zM360 493q-105 0 -173 -68.5t-68 -172.5q0 -87 52.5 -142.5t142.5 -55.5q105 0 171 69t66 174q0 93 -52.5 144.5t-138.5 51.5z
" />
    <glyph glyph-name="r" unicode="r" horiz-adv-x="301" 
d="M13 0l106 547h70l-9 -50h2q67 65 168 62l-15 -74q-78 5 -134 -48q-36 -35 -48 -96l-66 -341h-74z" />
    <glyph glyph-name="s" unicode="s" horiz-adv-x="388" 
d="M3 161h74q-2 -12 -2 -19q0 -37 22.5 -62.5t69.5 -25.5q52 0 80 29.5t28 73.5t-37 71q-11 8 -53 27q-52 22 -85 55t-33 90q0 75 58 122q47 38 117 38q68 0 105 -35q34 -32 34 -93q0 -7 -2 -21h-74q2 12 2 19q0 63 -75 63q-45 0 -68 -26t-23 -63q0 -19 6.5 -33t22.5 -25
t25.5 -16t31.5 -14q2 -1 3.5 -1.5t3.5 -1.5q22 -9 37.5 -17.5t36 -25.5t31 -43t10.5 -60q0 -88 -63 -140q-50 -40 -125 -40q-85 0 -126 49q-34 39 -34 102q0 7 2 23z" />
    <glyph glyph-name="t" unicode="t" horiz-adv-x="339" 
d="M76 0l93 480h-115l13 67h115l38 193h74l-38 -193h127l-13 -67h-127l-93 -480h-74z" />
    <glyph glyph-name="u" unicode="u" horiz-adv-x="608" 
d="M601 547l-106 -547h-70l13 67h-2q-75 -80 -193 -80q-83 0 -133 49q-54 53 -54 150q0 38 7 73l56 288h74l-56 -288q-7 -32 -7 -69q0 -60 31.5 -98t93.5 -38q82 0 140 51q27 24 44.5 57t21 49t12.5 59l54 277h74z" />
    <glyph glyph-name="v" unicode="v" 
d="M188 0l-124 547h91l89 -449l271 449h87l-334 -547h-80z" />
    <glyph glyph-name="w" unicode="w" horiz-adv-x="831" 
d="M138 0l-75 547h80l58 -454l232 454h76l62 -454l225 454h84l-287 -547h-85l-56 443l-229 -443h-85z" />
    <glyph glyph-name="x" unicode="x" horiz-adv-x="480" 
d="M-42 0l241 284l-135 263h87l106 -213l180 213h91l-240 -275l138 -272h-87l-108 221l-182 -221h-91z" />
    <glyph glyph-name="y" unicode="y" horiz-adv-x="536" 
d="M498 547h87l-445 -739h-87l136 221l-127 518h91l96 -425z" />
    <glyph glyph-name="z" unicode="z" horiz-adv-x="425" 
d="M-37 0l13 67l372 413h-287l13 67h379l-13 -67l-370 -413h309l-13 -67h-403z" />
    <glyph glyph-name="braceleft" unicode="{" horiz-adv-x="351" 
d="M62 277l11 60q41 1 71 35q22 26 32 74l32 160q12 57 29 80q12 16 30 28q38 26 88 26h31l-12 -60h-10q-34 0 -57 -18q-22 -17 -32 -71l-31 -156q-13 -66 -44 -95q-28 -26 -70 -32l-1 -2q10 -1 20 -4.5t22.5 -11t20.5 -24.5t8 -41q0 -19 -5 -46l-31 -156q-5 -22 -5 -37
q0 -52 60 -52h10l-12 -60h-31q-51 0 -78 26q-23 21 -23 66q0 14 6 42l31 160q4 20 4 44q0 32 -26 52q-15 12 -38 13z" />
    <glyph glyph-name="bar" unicode="|" horiz-adv-x="672" 
d="M304 0v740h64v-740h-64z" />
    <glyph glyph-name="braceright" unicode="}" horiz-adv-x="351" 
d="M310 337l-11 -60q-41 -1 -71 -35q-22 -26 -32 -74l-32 -160q-12 -57 -29 -80q-12 -16 -30 -28q-38 -26 -88 -26h-31l12 60h10q34 0 57 18q22 17 32 71l31 156q13 66 44 95q28 26 70 32l1 2q-10 1 -20 4.5t-22.5 11t-20.5 24.5t-8 41q0 19 5 46l31 156q5 22 5 37
q0 52 -60 52h-10l12 60h31q51 0 78 -26q23 -21 23 -66q0 -14 -6 -42l-31 -160q-4 -20 -4 -44q0 -32 26 -52q15 -12 38 -13z" />
    <glyph glyph-name="asciitilde" unicode="~" horiz-adv-x="606" 
d="M524 391l42 -47q-27 -54 -64.5 -82.5t-77.5 -28.5q-18 0 -39.5 6t-37.5 13t-54 24q-58 26 -88 26q-36 0 -62 -28t-40 -62l-41 48q27 57 64.5 87.5t78.5 30.5q34 0 82 -20q10 -4 31 -14t31 -14q50 -22 76 -22q57 0 99 83z" />
    <glyph glyph-name="currency" unicode="&#xa4;" 
d="M41 110l43 42q-48 66 -48 148q0 87 48 151l-43 43l52 53l44 -43q66 49 154 49q79 0 146 -49l44 43l52 -53l-43 -43q48 -65 48 -156q0 -76 -48 -143l43 -42l-52 -53l-44 43q-67 -50 -155 -50q-77 0 -145 50l-44 -43zM473 303q0 75 -53 128.5t-129 54.5q-81 1 -136 -53.5
t-54 -132.5q1 -76 54 -130.5t130 -54.5t132.5 55t55.5 133z" />
    <glyph glyph-name="brokenbar" unicode="&#xa6;" horiz-adv-x="672" 
d="M304 0v296h64v-296h-64zM304 444v296h64v-296h-64z" />
    <glyph glyph-name="section" unicode="&#xa7;" horiz-adv-x="615" 
d="M553 608h-70q1 5 1 16q0 8 -4 17.5t-13.5 21.5t-32 19t-54.5 7q-40 0 -67 -12t-38 -30.5t-14.5 -31.5t-3.5 -25q0 -53 67 -90l114 -63q96 -52 96 -136q0 -97 -106 -162q38 -36 38 -92q0 -69 -47 -120q-61 -66 -172 -66q-9 0 -22.5 1t-44.5 10.5t-54 25t-42 49.5t-19 80
q0 21 4 38h70q-4 -15 -4 -33q0 -47 33 -77.5t92 -29.5q62 1 97 35t35 77q0 9 -1.5 17t-3.5 14t-6.5 13t-7 11t-10 10.5t-10 9t-11.5 8t-11 7t-11.5 7t-10.5 6.5l-133 79q-70 41 -70 119q0 58 35.5 96.5t79.5 56.5q-38 41 -38 95q0 40 19 75t49 56q51 36 142 36
q78 0 119.5 -33.5t41.5 -81.5q0 -25 -1 -30zM226 270l160 -92q35 18 54.5 49t19.5 65q0 49 -55 79l-148 83q-36 -15 -56.5 -44.5t-20.5 -65.5q0 -48 46 -74z" />
    <glyph glyph-name="copyright" unicode="&#xa9;" horiz-adv-x="747" 
d="M385 -13q-158 0 -270.5 112.5t-112.5 270.5t112.5 270.5t270.5 112.5t269.5 -112.5t111.5 -270.5t-111.5 -270.5t-269.5 -112.5zM385 33q139 0 237 98.5t98 238.5t-98 238.5t-237 98.5q-140 0 -238.5 -98.5t-98.5 -238.5t98.5 -238.5t238.5 -98.5zM581 475h-55
q-45 71 -141 71q-85 0 -128.5 -53t-43.5 -120q0 -77 49 -126t126 -49q17 0 36.5 3.5t51.5 21t52 47.5h55q-22 -39 -51.5 -65t-59.5 -36.5t-48.5 -13.5t-35.5 -3q-99 0 -162 60.5t-63 160.5q0 95 63.5 157t158.5 62q49 0 87.5 -14.5t61 -37.5t32 -37t15.5 -28z" />
    <glyph glyph-name="guillemotleft" unicode="&#xab;" horiz-adv-x="425" 
d="M119 101l-74 200l151 199l52 -31l-133 -172l64 -172zM294 101l-74 200l151 199l52 -31l-133 -172l64 -172z" />
    <glyph glyph-name="logicalnot" unicode="&#xac;" horiz-adv-x="606" 
d="M487 166v194h-428v76h504v-270h-76z" />
    <glyph glyph-name="registered" unicode="&#xae;" horiz-adv-x="747" 
d="M385 -13q-158 0 -270.5 112.5t-112.5 270.5t112.5 270.5t270.5 112.5t269.5 -112.5t111.5 -270.5t-111.5 -270.5t-269.5 -112.5zM385 33q139 0 237 98.5t98 238.5t-98 238.5t-237 98.5q-140 0 -238.5 -98.5t-98.5 -238.5t98.5 -238.5t238.5 -98.5zM253 156v427h133
q50 0 86 -13.5t53 -35.5t24 -44t7 -46q0 -52 -36.5 -89t-91.5 -38l122 -161h-60l-150 201h39q127 0 127 89q0 91 -127 91h-76v-381h-50z" />
    <glyph glyph-name="degree" unicode="&#xb0;" horiz-adv-x="400" 
d="M410 589q0 -61 -44 -105.5t-106 -44.5t-106 44t-44 106t44 106t106 44t106 -44.5t44 -105.5zM370 589q0 45 -32.5 77.5t-78.5 32.5t-77.5 -32t-31.5 -78t32 -78t78 -32q45 0 77.5 32t32.5 78z" />
    <glyph glyph-name="plusminus" unicode="&#xb1;" horiz-adv-x="606" 
d="M276 392v162h76v-162h214v-76h-214v-162h-76v162h-214v76h214zM62 0v76h504v-76h-504z" />
    <glyph glyph-name="mu" unicode="&#xb5;" horiz-adv-x="608" 
d="M119 547h74l-57 -295q-20 -104 31 -157q36 -37 94 -37q68 0 126 46q65 52 83 148l57 295h74l-106 -547h-70l15 75h-2q-68 -88 -189 -88q-109 0 -148 82l-51 -261h-74z" />
    <glyph glyph-name="mu" unicode="&#x3bc;" horiz-adv-x="608" 
d="M119 547h74l-57 -295q-20 -104 31 -157q36 -37 94 -37q68 0 126 46q65 52 83 148l57 295h74l-106 -547h-70l15 75h-2q-68 -88 -189 -88q-109 0 -148 82l-51 -261h-74z" />
    <glyph glyph-name="paragraph" unicode="&#xb6;" horiz-adv-x="564" 
d="M155 -126l94 482q-66 5 -111.5 52t-45.5 118q0 109 83 167q67 47 180 47h231l-169 -866h-74l156 799h-114l-156 -799h-74z" />
    <glyph glyph-name="periodcentered" unicode="&#xb7;" horiz-adv-x="250" 
d="M76 238l24 126h74l-24 -126h-74z" />
    <glyph glyph-name="periodcentered" unicode="&#x2219;" horiz-adv-x="250" 
d="M76 238l24 126h74l-24 -126h-74z" />
    <glyph glyph-name="guillemotright" unicode="&#xbb;" horiz-adv-x="425" 
d="M323 500l74 -200l-151 -199l-52 31l133 172l-64 172zM148 500l74 -200l-150 -199l-53 31l133 172l-64 172z" />
    <glyph glyph-name="afii10023" unicode="&#x401;" horiz-adv-x="536" 
d="M24 0l144 740h406l-13 -67h-332l-52 -267h321l-13 -67h-321l-53 -272h332l-13 -67h-406zM284 906h74l-24 -126h-74zM458 906h74l-24 -126h-74z" />
    <glyph glyph-name="afii10051" unicode="&#x402;" horiz-adv-x="699" 
d="M118 0l131 673h-160l13 67h474l-13 -67h-240l-45 -231h164q119 0 174 -57q51 -55 51 -143q0 -122 -89 -188q-73 -54 -182 -54h-95l13 67h89q82 0 132 41q58 46 58 130q0 68 -43 104q-38 33 -113 33h-172l-73 -375h-74z" />
    <glyph glyph-name="afii10052" unicode="&#x403;" horiz-adv-x="460" 
d="M24 0l144 740h379l-13 -67h-305l-131 -673h-74zM283 836l215 116l31 -58l-215 -114z" />
    <glyph glyph-name="afii10053" unicode="&#x404;" horiz-adv-x="813" 
d="M812 551h-84q-58 135 -242 135q-153 0 -247 -94q-77 -77 -95 -186h435l-13 -67h-430q-5 -118 69 -199q79 -86 220 -86q82 0 152 34.5t111 104.5h88q-28 -56 -69.5 -97t-79 -61.5t-83 -32t-70.5 -13.5t-51 -2q-183 0 -280 108q-81 90 -81 229q0 193 128 318
q116 111 309 111q21 0 39.5 -1.5t52.5 -7t63.5 -19t61 -34.5t56.5 -57t40 -83z" />
    <glyph glyph-name="afii10054" unicode="&#x405;" horiz-adv-x="498" 
d="M13 207h74q-2 -18 -2 -28q0 -59 40 -94q35 -31 99 -31q74 0 119 34q49 38 49 104q0 74 -58 119q-21 16 -69 40q-32 16 -54 31t-48 39.5t-39.5 59t-13.5 77.5q0 85 59 139q61 56 162 56q95 0 142 -45q46 -44 46 -130q0 -9 -2 -25h-74q2 18 2 27q0 51 -30 79q-29 27 -87 27
q-61 0 -97 -27q-47 -36 -47 -95q0 -31 11.5 -56t33.5 -44t36.5 -28.5t39.5 -22.5q39 -20 58.5 -32.5t48 -38t41.5 -60.5t13 -82q0 -104 -73 -161q-67 -52 -175 -52q-92 0 -145 44q-62 53 -62 153q0 7 2 23z" />
    <glyph glyph-name="afii10055" unicode="&#x406;" horiz-adv-x="226" 
d="M24 0l144 740h74l-144 -740h-74z" />
    <glyph glyph-name="afii10056" unicode="&#x407;" horiz-adv-x="240" 
d="M33 0l144 740h74l-144 -740h-74zM149 906h74l-24 -126h-74zM269 906h74l-24 -126h-74z" />
    <glyph glyph-name="afii10057" unicode="&#x408;" horiz-adv-x="482" 
d="M498 740l-101 -518q-8 -41 -13 -60.5t-17.5 -49t-30.5 -51.5q-62 -74 -176 -74q-90 0 -133 54q-35 44 -35 108q0 17 1 26h74q-1 -8 -1 -23q0 -11 2.5 -23t11 -31t31 -31.5t55.5 -12.5q69 0 110 48q30 35 47 120l101 518h74z" />
    <glyph glyph-name="afii10058" unicode="&#x409;" horiz-adv-x="1040" 
d="M608 740h94l-60 -306h140q118 0 174 -55q52 -52 52 -141q0 -118 -90 -184q-74 -54 -182 -54h-252l125 640h-2l-557 -640h-96zM629 367l-58 -300h171q86 0 139 45.5t53 121.5q0 44 -18 73.5t-48 41t-50 15t-42 3.5h-147z" />
    <glyph glyph-name="afii10059" unicode="&#x40a;" horiz-adv-x="1040" 
d="M24 0l144 740h74l-60 -306h386l60 306h74l-60 -306h140q118 0 174 -55q52 -52 52 -141q0 -118 -90 -184q-74 -54 -182 -54h-252l71 367h-386l-71 -367h-74zM629 367l-58 -300h171q86 0 139 45.5t53 121.5q0 44 -18 73.5t-48 41t-50 15t-42 3.5h-147z" />
    <glyph glyph-name="afii10060" unicode="&#x40b;" horiz-adv-x="720" 
d="M118 0l131 673h-160l13 67h474l-13 -67h-240l-45 -231h166q110 0 157 -33q61 -42 61 -131q0 -29 -6 -59l-42 -219h-74l42 219q6 34 6 51q0 56 -34 82q-31 23 -123 23h-166l-73 -375h-74z" />
    <glyph glyph-name="afii10061" unicode="&#x40c;" horiz-adv-x="600" 
d="M168 740h74l-144 -740h-74zM223 379l355 361h96l-362 -361l222 -379h-92zM333 836l215 116l31 -58l-215 -114z" />
    <glyph glyph-name="afii10062" unicode="&#x40e;" horiz-adv-x="620" 
d="M708 740l-460 -740h-84l120 188l-184 552h88l150 -467l286 467h84zM244 920h67q-4 -37 22 -59t75 -22t84.5 21t44.5 60h67q-15 -68 -69 -104t-130 -36q-85 0 -125.5 40.5t-35.5 99.5z" />
    <glyph glyph-name="afii10145" unicode="&#x40f;" horiz-adv-x="680" 
d="M696 740l-144 -740h-227l-37 -192h-74l37 192h-227l144 740h74l-131 -673h380l131 673h74z" />
    <glyph glyph-name="afii10017" unicode="&#x410;" horiz-adv-x="740" 
d="M-39 0l463 740h82l173 -740h-80l-58 248h-341l-155 -248h-84zM242 315h283l-77 339z" />
    <glyph glyph-name="afii10018" unicode="&#x411;" horiz-adv-x="580" 
d="M168 740h402l-13 -67h-328l-47 -239h140q118 0 174 -55q52 -52 52 -137q0 -121 -90 -188q-74 -54 -182 -54h-252zM169 367l-58 -300h171q82 0 132 41q58 47 58 126q0 68 -43 102q-38 31 -113 31h-147z" />
    <glyph glyph-name="afii10019" unicode="&#x412;" horiz-adv-x="574" 
d="M24 0l144 740h183q105 0 152 -36q61 -46 61 -132q0 -62 -34.5 -111t-95.5 -70q103 -39 103 -157q0 -124 -102 -188q-74 -46 -200 -46h-211zM111 67h137q95 0 146 33q69 45 69 128q0 70 -51 104q-37 24 -118 24h-127zM180 423h119q79 0 122 24q69 39 69 119q0 52 -37 82
q-31 25 -115 25h-109z" />
    <glyph glyph-name="afii10020" unicode="&#x413;" horiz-adv-x="460" 
d="M24 0l144 740h379l-13 -67h-305l-131 -673h-74z" />
    <glyph glyph-name="afii10021" unicode="&#x414;" horiz-adv-x="780" 
d="M524 740l145 -673h67l-40 -207h-74l27 140h-618l-27 -140h-74l40 207h67l405 673h82zM125 67h464l-121 587z" />
    <glyph glyph-name="afii10022" unicode="&#x415;" horiz-adv-x="536" 
d="M24 0l144 740h406l-13 -67h-332l-52 -267h321l-13 -67h-321l-53 -272h332l-13 -67h-406z" />
    <glyph glyph-name="afii10024" unicode="&#x416;" horiz-adv-x="920" 
d="M518 740h74l-144 -740h-74zM417 386l-362 -386h-100l373 393l-208 347h92zM555 386l338 354h96l-343 -354l219 -386h-92z" />
    <glyph glyph-name="afii10025" unicode="&#x417;" horiz-adv-x="540" 
d="M91 547q14 94 84 150q69 56 182 56q104 0 152 -56q41 -48 41 -122q0 -89 -59 -141q-31 -29 -80 -46q38 -14 62 -48q30 -42 30 -106q0 -119 -81 -188q-70 -59 -186 -59q-97 0 -154 46q-65 52 -65 148q0 25 4 45h74q-4 -19 -4 -41q0 -60 38 -95q40 -36 112 -36q81 0 130 42
q58 50 58 132q0 61 -34 95q-33 33 -103 33h-54l13 67h54q71 0 117 37q54 43 54 112q0 50 -31 81q-33 33 -96 33q-76 0 -126 -39t-58 -100h-74z" />
    <glyph glyph-name="afii10026" unicode="&#x418;" horiz-adv-x="740" 
d="M168 740h74l-121 -623l557 623h78l-144 -740h-74l120 623l-556 -623h-78z" />
    <glyph glyph-name="afii10027" unicode="&#x419;" horiz-adv-x="740" 
d="M168 740h74l-121 -623l557 623h78l-144 -740h-74l120 623l-556 -623h-78zM316 920h72q-3 -33 19 -55.5t73 -22.5q43 0 78 18t46 60h72q-15 -68 -69 -104t-130 -36q-85 0 -125.5 40.5t-35.5 99.5z" />
    <glyph glyph-name="afii10028" unicode="&#x41a;" horiz-adv-x="600" 
d="M168 740h74l-144 -740h-74zM223 379l355 361h96l-362 -361l222 -379h-92z" />
    <glyph glyph-name="afii10029" unicode="&#x41b;" horiz-adv-x="700" 
d="M479 740l162 -740h-80l-134 640l-384 -640h-84l450 740h70z" />
    <glyph glyph-name="afii10030" unicode="&#x41c;" horiz-adv-x="919" 
d="M24 0l144 740h115l146 -628l391 628h115l-144 -740h-74l128 657l-407 -657h-62l-150 657l-128 -657h-74z" />
    <glyph glyph-name="afii10031" unicode="&#x41d;" horiz-adv-x="683" 
d="M24 0l144 740h74l-64 -326h383l64 326h74l-144 -740h-74l67 347h-383l-67 -347h-74z" />
    <glyph glyph-name="afii10032" unicode="&#x41e;" horiz-adv-x="869" 
d="M507 753q166 0 258 -106q82 -94 82 -235q0 -192 -133 -315q-119 -110 -310 -110q-169 0 -260 105q-82 93 -82 234q0 89 36 172.5t104 145.5q121 109 305 109zM414 54q148 0 250 99q109 106 109 259q0 110 -68 188q-76 86 -206 86q-146 0 -251 -100q-112 -108 -112 -260
q0 -108 69 -187q41 -47 91.5 -66t117.5 -19z" />
    <glyph glyph-name="afii10033" unicode="&#x41f;" horiz-adv-x="680" 
d="M24 0l144 740h528l-144 -740h-74l131 673h-380l-131 -673h-74z" />
    <glyph glyph-name="afii10034" unicode="&#x420;" horiz-adv-x="592" 
d="M24 0l144 740h222q108 0 163 -46q63 -52 63 -153q0 -125 -92 -191q-75 -53 -198 -53h-170l-58 -297h-74zM229 673l-60 -309h169q88 0 140 39q64 47 64 136q0 65 -41 102q-36 32 -121 32h-151z" />
    <glyph glyph-name="afii10035" unicode="&#x421;" horiz-adv-x="813" 
d="M812 551h-84q-57 135 -242 135q-153 0 -247 -94q-103 -103 -103 -261q0 -115 69 -191q79 -86 220 -86q82 0 152 34.5t111 104.5h88q-28 -56 -69.5 -97t-79 -61.5t-83 -32t-70 -13.5t-50.5 -2q-184 0 -281 108q-81 90 -81 229q0 193 128 318q68 66 145.5 88.5t167.5 22.5
q245 0 309 -202z" />
    <glyph glyph-name="afii10036" unicode="&#x422;" horiz-adv-x="426" 
d="M126 0l131 673h-169l13 67h412l-13 -67h-169l-131 -673h-74z" />
    <glyph glyph-name="afii10037" unicode="&#x423;" horiz-adv-x="620" 
d="M708 740l-460 -740h-84l120 188l-184 552h88l150 -467l286 467h84z" />
    <glyph glyph-name="afii10038" unicode="&#x424;" horiz-adv-x="820" 
d="M311 -37l20 104q-54 1 -104.5 20.5t-84.5 50.5q-80 74 -80 207q0 197 146 296q106 71 247 66l19 93h74l-19 -93q54 -1 104.5 -20.5t84.5 -50.5q80 -74 80 -207q0 -197 -146 -296q-106 -71 -247 -66l-20 -104h-74zM344 134l99 506q-117 5 -199 -58q-50 -37 -79 -100
t-29 -137q0 -98 57 -155q58 -58 151 -56zM517 640l-99 -506q114 -5 198 58q50 38 79 100t29 137q0 98 -57 155t-150 56z" />
    <glyph glyph-name="afii10039" unicode="&#x425;" horiz-adv-x="609" 
d="M-36 0l321 381l-172 359h86l138 -296l244 296h92l-303 -364l187 -376h-88l-151 314l-262 -314h-92z" />
    <glyph glyph-name="afii10040" unicode="&#x426;" horiz-adv-x="720" 
d="M696 740l-131 -673h103l-40 -207h-74l27 140h-557l144 740h74l-131 -673h380l131 673h74z" />
    <glyph glyph-name="afii10041" unicode="&#x427;" horiz-adv-x="620" 
d="M636 740l-144 -740h-74l58 297h-163q-219 0 -219 156q0 27 7 67l42 220h74l-42 -220q-7 -37 -7 -59q0 -97 146 -97h175l73 376h74z" />
    <glyph glyph-name="afii10042" unicode="&#x428;" horiz-adv-x="960" 
d="M168 740h74l-131 -673h293l131 673h74l-131 -673h293l131 673h74l-144 -740h-808z" />
    <glyph glyph-name="afii10043" unicode="&#x429;" horiz-adv-x="1000" 
d="M168 740h74l-131 -673h293l131 673h74l-131 -673h293l131 673h74l-131 -673h103l-40 -207h-74l27 140h-837z" />
    <glyph glyph-name="afii10044" unicode="&#x42a;" horiz-adv-x="680" 
d="M101 740h241l-60 -306h140q118 0 174 -55q52 -52 52 -141q0 -118 -90 -184q-74 -54 -182 -54h-252l131 673h-167zM269 367l-58 -300h171q80 0 132 41q60 47 60 126q0 67 -45 102q-41 31 -113 31h-147z" />
    <glyph glyph-name="afii10045" unicode="&#x42b;" horiz-adv-x="780" 
d="M168 740h74l-60 -306h140q118 0 174 -55q52 -52 52 -141q0 -118 -90 -184q-74 -54 -182 -54h-252zM578 0l144 740h74l-144 -740h-74zM165 367l-58 -300h171q89 0 142.5 45.5t53.5 121.5q0 44 -18.5 73.5t-49 41t-51.5 15t-43 3.5h-147z" />
    <glyph glyph-name="afii10046" unicode="&#x42c;" horiz-adv-x="580" 
d="M168 740h74l-60 -306h140q118 0 174 -55q52 -52 52 -141q0 -118 -90 -184q-74 -54 -182 -54h-252zM169 367l-58 -300h171q86 0 139 45.5t53 121.5q0 44 -18 73.5t-48 41t-50 15t-42 3.5h-147z" />
    <glyph glyph-name="afii10047" unicode="&#x42d;" horiz-adv-x="813" 
d="M41 193h88q54 -139 242 -139q150 0 243 93q77 77 98 192h-438l13 67h430q3 115 -69 194q-78 86 -214 86q-86 0 -157.5 -34t-111.5 -101h-88q28 55 69.5 95t79.5 60t83 31.5t71 13.5t54 2q181 0 276 -107q81 -90 81 -232q0 -96 -34.5 -178t-93.5 -139q-115 -110 -311 -110
q-20 0 -38.5 1.5t-52 7t-63 19.5t-61 35t-56.5 58t-40 85z" />
    <glyph glyph-name="afii10048" unicode="&#x42e;" horiz-adv-x="1080" 
d="M178 414h112q27 136 131 230q120 109 304 109q161 0 253 -107q80 -93 80 -230q0 -197 -132 -319q-118 -110 -305 -110q-167 0 -258 106q-88 104 -81 254h-117l-67 -347h-74l144 740h74zM626 54q153 0 253 99q105 103 105 255q0 117 -64 192q-72 86 -202 86
q-150 0 -254 -100q-54 -52 -81 -120.5t-27 -139.5q0 -112 65 -187q73 -85 205 -85z" />
    <glyph glyph-name="afii10049" unicode="&#x42f;" horiz-adv-x="600" 
d="M616 740l-144 -740h-74l131 673h-149q-98 0 -156 -37q-82 -53 -82 -159q0 -64 44 -104q43 -38 148 -38h59l-302 -335h-96l258 276q-72 4 -124 51q-61 55 -61 145q0 68 29 124.5t81 92.5q47 32 97.5 41.5t117.5 9.5h223z" />
    <glyph glyph-name="afii10065" unicode="&#x430;" horiz-adv-x="683" 
d="M676 547l-105 -547h-70l13 66h-2q-69 -79 -203 -79q-108 0 -175 56q-89 74 -89 203q0 151 109 242q87 72 220 72q22 0 45.5 -4t56 -15t61.5 -37.5t46 -66.5h2l21 110h70zM360 493q-104 0 -172.5 -69t-68.5 -176q0 -84 52 -139t143 -55q105 0 171.5 69.5t66.5 175.5
q0 91 -52.5 142.5t-139.5 51.5z" />
    <glyph glyph-name="afii10066" unicode="&#x431;" horiz-adv-x="660" 
d="M693 740l-13 -67l-237 -16q-137 -8 -213 -81q-59 -56 -88 -150h2q80 115 240 115q108 0 170 -65q63 -65 63 -175q0 -147 -100 -237q-86 -77 -216 -77q-108 0 -172 60q-78 73 -78 204q0 108 43 217t111 169q56 48 115.5 65t135.5 22zM374 474q-102 0 -168 -63
q-75 -70 -75 -182q0 -82 53 -131q46 -44 127 -44q104 0 171 73q61 68 61 171q0 82 -47 129t-122 47z" />
    <glyph glyph-name="afii10067" unicode="&#x432;" horiz-adv-x="480" 
d="M119 547h178q75 0 112 -30q45 -36 45 -98q0 -54 -32 -91q-25 -31 -66 -44q71 -28 71 -112q0 -85 -67 -134q-51 -38 -141 -38h-206zM180 480l-32 -166h117q52 0 80 24q30 26 30 71q0 33 -20 51q-22 20 -64 20h-111zM135 247l-35 -180h131q51 0 82 21q40 29 40 79
q0 40 -26 61q-24 19 -81 19h-111z" />
    <glyph glyph-name="afii10068" unicode="&#x433;" horiz-adv-x="360" 
d="M119 547h287l-13 -67h-213l-93 -480h-74z" />
    <glyph glyph-name="afii10069" unicode="&#x434;" horiz-adv-x="640" 
d="M419 547l117 -480h57l-40 -207h-74l27 140h-472l-27 -140h-74l40 207h57l303 480h86zM116 67h340l-93 402z" />
    <glyph glyph-name="afii10070" unicode="&#x435;" horiz-adv-x="650" 
d="M597 247h-483q-3 -90 55 -146q48 -47 131 -47q81 0 142 46q42 32 62 78h80q-31 -80 -94 -129q-79 -62 -195 -62q-115 0 -184 75q-66 72 -66 177q0 72 26 137t74 108q84 76 219 76q112 0 174 -69q63 -70 63 -190q0 -30 -4 -54zM125 314h397q0 67 -40 119q-48 60 -133 60
q-94 0 -157 -58q-52 -49 -67 -121z" />
    <glyph glyph-name="afii10072" unicode="&#x436;" horiz-adv-x="760" 
d="M49 0h-95l284 294l-162 253h86l160 -263zM367 0h-74l106 547h74zM618 0l-170 284l254 263h90l-260 -261l174 -286h-88z" />
    <glyph glyph-name="afii10073" unicode="&#x437;" horiz-adv-x="460" 
d="M142 413h-74q12 65 59 106q49 41 132 41q89 0 134 -43q41 -39 41 -96q0 -45 -29 -85t-83 -56q39 -9 61.5 -38.5t22.5 -72.5q0 -86 -66 -138q-57 -44 -146 -44q-81 0 -128 34q-56 41 -56 110q0 17 1 26h74q-1 -7 -1 -22q0 -38 30.5 -59.5t83.5 -21.5q60 0 96 30
q38 32 38 83q0 47 -38 68q-21 12 -71 12h-49l13 67h43q58 0 91 23q39 27 39 75q0 37 -26 60q-23 21 -79 21q-50 0 -80 -25q-26 -21 -33 -55z" />
    <glyph glyph-name="afii10074" unicode="&#x438;" horiz-adv-x="600" 
d="M119 547h74l-87 -445l403 445h84l-106 -547h-74l87 445l-403 -445h-84z" />
    <glyph glyph-name="afii10075" unicode="&#x439;" horiz-adv-x="600" 
d="M119 547h74l-87 -445l403 445h84l-106 -547h-74l87 445l-403 -445h-84zM237 740h63q2 -33 24 -51t55 -18q75 0 99 69h63q-15 -57 -59 -91.5t-104 -34.5t-101.5 34t-39.5 92z" />
    <glyph glyph-name="afii10076" unicode="&#x43a;" horiz-adv-x="500" 
d="M87 0h-74l106 547h74zM354 0l-176 277l261 270h95l-268 -270l179 -277h-91z" />
    <glyph glyph-name="afii10077" unicode="&#x43b;" horiz-adv-x="560" 
d="M371 547l131 -547h-82l-102 457l-276 -457h-84l336 547h77z" />
    <glyph glyph-name="afii10078" unicode="&#x43c;" horiz-adv-x="720" 
d="M119 547h114l98 -447l270 447h112l-106 -547h-74l91 465l-282 -465h-64l-100 465l-91 -465h-74z" />
    <glyph glyph-name="afii10079" unicode="&#x43d;" horiz-adv-x="580" 
d="M119 547h74l-45 -233h306l45 233h74l-106 -547h-74l48 247h-306l-48 -247h-74z" />
    <glyph glyph-name="afii10080" unicode="&#x43e;" horiz-adv-x="655" 
d="M361 560q110 0 176 -64q69 -67 69 -188q0 -146 -94 -238q-86 -83 -223 -83q-109 0 -174 64q-70 68 -70 188q0 148 102 243q83 78 214 78zM357 493q-101 0 -166 -65q-72 -72 -72 -179q0 -96 46 -145q47 -50 128 -50q106 0 170 64q69 69 69 180q0 94 -48 146
q-46 49 -127 49z" />
    <glyph glyph-name="afii10081" unicode="&#x43f;" horiz-adv-x="580" 
d="M119 547h454l-106 -547h-74l93 480h-306l-93 -480h-74z" />
    <glyph glyph-name="afii10082" unicode="&#x440;" horiz-adv-x="682" 
d="M-24 -192l143 739h70l-13 -66h2q64 79 198 79q102 0 169 -55q88 -73 88 -208q0 -146 -99 -235q-85 -75 -213 -75q-152 0 -213 114h-2l-56 -293h-74zM367 493q-100 0 -164.5 -68t-64.5 -175q0 -93 51.5 -144.5t137.5 -51.5q104 0 168 68.5t64 172.5q0 88 -51.5 143
t-140.5 55z" />
    <glyph glyph-name="afii10083" unicode="&#x441;" horiz-adv-x="647" 
d="M513 160h82q-13 -29 -32 -55t-52.5 -55t-87 -46t-119.5 -17q-114 0 -183 64q-76 70 -76 188q0 150 100 241q87 80 226 80q62 0 109.5 -17.5t74 -46.5t40 -56.5t20.5 -58.5h-80q-14 52 -61.5 82t-113.5 30q-104 0 -172 -69q-69 -72 -69 -179q0 -90 60 -144q53 -47 141 -47
q63 0 115.5 28t77.5 78z" />
    <glyph glyph-name="afii10084" unicode="&#x442;" horiz-adv-x="380" 
d="M68 547h356l-13 -67h-139l-93 -480h-74l93 480h-143z" />
    <glyph glyph-name="afii10085" unicode="&#x443;" horiz-adv-x="536" 
d="M498 547h87l-445 -739h-87l136 221l-127 518h91l96 -425z" />
    <glyph glyph-name="afii10086" unicode="&#x444;" horiz-adv-x="740" 
d="M422 740h74l-38 -193q103 -1 170 -70q63 -65 63 -170q0 -88 -36.5 -152.5t-94.5 -102.5q-90 -58 -208 -52l-37 -192h-74l37 192q-103 1 -170 70q-63 65 -63 170q0 88 36.5 152.5t94.5 102.5q90 58 208 52zM291 67l80 413q-96 4 -165 -47q-87 -66 -87 -191q0 -79 47 -126
q49 -49 125 -49zM445 480l-80 -413q96 -4 165 47q87 66 87 191q0 79 -47 126q-49 49 -125 49z" />
    <glyph glyph-name="afii10087" unicode="&#x445;" horiz-adv-x="480" 
d="M-42 0l241 284l-135 263h87l106 -213l180 213h91l-240 -275l138 -272h-87l-108 221l-182 -221h-91z" />
    <glyph glyph-name="afii10088" unicode="&#x446;" horiz-adv-x="620" 
d="M119 547h74l-93 -480h308l93 480h74l-93 -480h94l-40 -207h-74l27 140h-476z" />
    <glyph glyph-name="afii10089" unicode="&#x447;" horiz-adv-x="520" 
d="M513 547l-106 -547h-74l40 206h-120q-99 0 -139 23q-52 30 -52 96q0 32 8 70l30 152h74l-30 -154q-5 -28 -5 -51q0 -35 21 -52q20 -17 93 -17h133l53 274h74z" />
    <glyph glyph-name="afii10090" unicode="&#x448;" horiz-adv-x="820" 
d="M119 547h74l-93 -480h234l93 480h74l-93 -480h234l97 480h74l-106 -547h-694z" />
    <glyph glyph-name="afii10091" unicode="&#x449;" horiz-adv-x="860" 
d="M119 547h74l-93 -480h236l93 480h74l-93 -480h236l93 480h74l-93 -480h94l-40 -207h-74l27 140h-714z" />
    <glyph glyph-name="afii10092" unicode="&#x44a;" horiz-adv-x="580" 
d="M55 480l13 67h205l-40 -209h140q87 0 129 -49q33 -39 34 -99q2 -96 -70 -148q-58 -42 -141 -42h-232l93 480h-131zM220 271l-40 -204h157q53 0 86 27q39 31 39 86q0 40 -24 64q-26 27 -81 27h-137z" />
    <glyph glyph-name="afii10093" unicode="&#x44b;" horiz-adv-x="680" 
d="M119 547h74l-40 -209h140q87 0 129 -49q34 -39 34 -103q0 -93 -70 -144q-58 -42 -141 -42h-232zM493 0l106 547h74l-106 -547h-74zM140 271l-40 -204h157q53 0 86 27q39 31 39 86q0 40 -24 64q-26 27 -81 27h-137z" />
    <glyph glyph-name="afii10094" unicode="&#x44c;" horiz-adv-x="500" 
d="M119 547h74l-40 -209h140q87 0 129 -49q34 -39 34 -103q0 -93 -70 -144q-58 -42 -141 -42h-232zM140 271l-40 -204h157q53 0 86 27q39 31 39 86q0 40 -24 64q-26 27 -81 27h-137z" />
    <glyph glyph-name="afii10095" unicode="&#x44d;" horiz-adv-x="647" 
d="M130 387h-82q31 71 93 117q79 56 194 56q118 0 187 -64q76 -70 76 -192q0 -148 -100 -237q-89 -80 -228 -80q-100 0 -160 44q-64 46 -82 129h80q15 -49 57 -76q47 -30 118 -30q105 0 173 69q50 50 63 124h-335l13 67h327q-4 80 -60 132q-53 47 -141 47q-78 0 -132 -36
q-39 -27 -61 -70z" />
    <glyph glyph-name="afii10096" unicode="&#x44e;" horiz-adv-x="860" 
d="M148 314h105q21 100 95 168q86 78 212 78q115 0 181 -64q70 -67 70 -185q0 -151 -95 -241q-86 -83 -222 -83q-113 0 -178 64q-78 76 -71 196h-110l-48 -247h-74l106 547h74zM496 54q107 0 171 64q70 70 70 184q0 91 -49 142q-47 49 -128 49q-103 0 -168 -65
q-73 -71 -73 -187q0 -88 47 -137q48 -50 130 -50z" />
    <glyph glyph-name="afii10097" unicode="&#x44f;" horiz-adv-x="520" 
d="M513 547l-106 -547h-74l93 480h-157q-57 0 -95 -29q-50 -39 -50 -103q0 -49 34 -75q27 -20 77 -20h80l-226 -253h-90l182 199q-61 6 -96 46.5t-35 100.5q0 102 82 159q60 42 150 42h231z" />
    <glyph glyph-name="afii10071" unicode="&#x451;" horiz-adv-x="650" 
d="M597 247h-483q-3 -90 55 -146q48 -47 131 -47q81 0 142 46q42 32 62 78h80q-31 -80 -94 -129q-79 -62 -195 -62q-115 0 -184 75q-66 72 -66 177q0 72 26 137t74 108q84 76 219 76q112 0 174 -69q63 -70 63 -190q0 -30 -4 -54zM125 314h397q0 67 -40 119q-48 60 -133 60
q-94 0 -157 -58q-52 -49 -67 -121zM294 740h74l-25 -126h-74zM441 740h74l-25 -126h-74z" />
    <glyph glyph-name="afii10099" unicode="&#x452;" horiz-adv-x="610" 
d="M13 0l119 612h-100l13 67h100l12 61h74l-12 -61h286l-13 -67h-286l-34 -172h2q78 80 188 80q85 0 135 -49q55 -55 55 -152q0 -37 -7 -71l-40 -206q-4 -22 -6.5 -33t-12 -40.5t-20 -47t-30 -42.5t-43.5 -39t-59.5 -23.5t-78.5 -8.5l13 71q44 -2 75.5 13.5t48.5 45t25 52
t14 52.5l40 206q7 32 7 69q0 60 -32 98t-94 38q-83 0 -141 -51q-27 -24 -44.5 -57t-21 -49t-12.5 -59l-46 -237h-74z" />
    <glyph glyph-name="afii10100" unicode="&#x453;" horiz-adv-x="360" 
d="M119 547h287l-13 -67h-213l-93 -480h-74zM189 669l215 116l31 -58l-215 -114z" />
    <glyph glyph-name="afii10101" unicode="&#x454;" horiz-adv-x="647" 
d="M513 160h82q-13 -29 -32 -55t-52.5 -55t-87 -46t-119.5 -17q-114 0 -186.5 65.5t-72.5 182.5q0 61 19.5 117.5t57.5 103.5t102 75.5t145 28.5q63 0 111 -17.5t74.5 -47t40.5 -57t20 -57.5h-80q-16 57 -66 84.5t-113 27.5q-84 0 -146.5 -49t-81.5 -130h318l-13 -67h-314
q-2 -87 54.5 -140t146.5 -53q63 0 115.5 28t77.5 78z" />
    <glyph glyph-name="afii10102" unicode="&#x455;" horiz-adv-x="388" 
d="M3 161h74q-2 -12 -2 -19q0 -37 22.5 -62.5t69.5 -25.5q52 0 80 29.5t28 73.5t-37 71q-11 8 -53 27q-52 22 -85 55t-33 90q0 75 58 122q47 38 117 38q68 0 105 -35q34 -32 34 -93q0 -7 -2 -21h-74q2 12 2 19q0 63 -75 63q-45 0 -68 -26t-23 -63q0 -19 6.5 -33t22.5 -25
t25.5 -16t31.5 -14q2 -1 3.5 -1.5t3.5 -1.5q22 -9 37.5 -17.5t36 -25.5t31 -43t10.5 -60q0 -88 -63 -140q-50 -40 -125 -40q-85 0 -126 49q-34 39 -34 102q0 7 2 23z" />
    <glyph glyph-name="afii10103" unicode="&#x456;" horiz-adv-x="200" 
d="M13 0l106 547h74l-106 -547h-74zM132 614l25 126h74l-25 -126h-74z" />
    <glyph glyph-name="afii10104" unicode="&#x457;" horiz-adv-x="260" 
d="M43 0l106 547h74l-106 -547h-74zM120 740h74l-25 -126h-74zM254 740h74l-25 -126h-74z" />
    <glyph glyph-name="afii10105" unicode="&#x458;" horiz-adv-x="203" 
d="M196 547l-98 -505q-8 -39 -14 -63.5t-24.5 -64t-44.5 -62.5q-52 -46 -135 -46q-11 0 -35 2l13 71q9 -1 26 -1q53 0 87 33q33 34 53 131l98 505h74zM135 614l25 126h74l-25 -126h-74z" />
    <glyph glyph-name="afii10106" unicode="&#x459;" horiz-adv-x="840" 
d="M533 547l-40 -209h140q87 0 129 -49q34 -39 34 -103q0 -93 -70 -144q-58 -42 -141 -42h-232l88 463l-389 -463h-90l471 547h100zM480 271l-40 -204h157q53 0 86 27q39 30 39 82q0 44 -24 68q-26 27 -81 27h-137z" />
    <glyph glyph-name="afii10107" unicode="&#x45a;" horiz-adv-x="857" 
d="M119 547h74l-40 -209h283l40 209h74l-40 -209h140q87 0 129 -49q34 -39 34 -103q0 -93 -70 -144q-58 -42 -141 -42h-232l53 271h-283l-53 -271h-74zM497 271l-40 -204h157q53 0 86 27q39 30 39 82q0 44 -24 68q-26 27 -81 27h-137z" />
    <glyph glyph-name="afii10108" unicode="&#x45b;" horiz-adv-x="610" 
d="M13 0l119 612h-100l13 67h100l12 61h74l-12 -61h286l-13 -67h-286l-34 -172h2q78 80 188 80q85 0 135 -49q55 -55 55 -152q0 -37 -7 -71l-48 -248h-74l48 248q7 32 7 69q0 60 -32 98t-94 38q-83 0 -141 -51q-27 -24 -44.5 -57t-21 -49t-12.5 -59l-46 -237h-74z" />
    <glyph glyph-name="afii10109" unicode="&#x45c;" horiz-adv-x="500" 
d="M87 0h-74l106 547h74zM354 0l-176 277l261 270h95l-268 -270l179 -277h-91zM249 669l215 116l31 -58l-215 -114z" />
    <glyph glyph-name="afii10110" unicode="&#x45e;" horiz-adv-x="536" 
d="M498 547h87l-445 -739h-87l136 221l-127 518h91l96 -425zM194 740h63q2 -33 24 -51t55 -18q75 0 99 69h63q-15 -57 -59 -91.5t-104 -34.5t-101.5 34t-39.5 92z" />
    <glyph glyph-name="afii10193" unicode="&#x45f;" horiz-adv-x="580" 
d="M119 547h74l-93 -480h306l93 480h74l-106 -547h-190l-31 -160h-74l31 160h-190z" />
    <glyph glyph-name="afii10050" unicode="&#x490;" horiz-adv-x="460" 
d="M24 0l144 740h303l23 121h74l-36 -188h-303l-131 -673h-74z" />
    <glyph glyph-name="afii10098" unicode="&#x491;" horiz-adv-x="360" 
d="M119 547h211l22 113h74l-35 -180h-211l-93 -480h-74z" />
    <glyph glyph-name="endash" unicode="&#x2013;" horiz-adv-x="500" 
d="M15 334h500l-13 -67h-500z" />
    <glyph glyph-name="emdash" unicode="&#x2014;" horiz-adv-x="1000" 
d="M15 334h1000l-13 -67h-1000z" />
    <glyph glyph-name="quoteleft" unicode="&#x2018;" horiz-adv-x="351" 
d="M314 547h-74l-50 193h74z" />
    <glyph glyph-name="quoteright" unicode="&#x2019;" horiz-adv-x="351" 
d="M150 547l126 193h74l-126 -193h-74z" />
    <glyph glyph-name="quotesinglbase" unicode="&#x201a;" horiz-adv-x="354" 
d="M17 -67l126 193h74l-126 -193h-74z" />
    <glyph glyph-name="quotedblleft" unicode="&#x201c;" horiz-adv-x="502" 
d="M462 547h-74l-50 193h74zM314 547h-74l-50 193h74z" />
    <glyph glyph-name="quotedblright" unicode="&#x201d;" horiz-adv-x="484" 
d="M150 547l126 193h74l-126 -193h-74zM298 547l126 193h74l-126 -193h-74z" />
    <glyph glyph-name="quotedblbase" unicode="&#x201e;" horiz-adv-x="502" 
d="M34 -67l126 193h74l-126 -193h-74zM182 -67l126 193h74l-126 -193h-74z" />
    <glyph glyph-name="dagger" unicode="&#x2020;" horiz-adv-x="553" 
d="M407 740l-39 -201h180l-13 -67h-180l-117 -599h-74l117 599h-180l13 67h180l39 201h74z" />
    <glyph glyph-name="daggerdbl" unicode="&#x2021;" horiz-adv-x="553" 
d="M408 740l-35 -178h180l-13 -67h-180l-18 -95h180l-13 -67h-180l-90 -461h-74l90 461h-180l13 67h180l18 95h-180l13 67h180l35 178h74z" />
    <glyph glyph-name="bullet" unicode="&#x2022;" horiz-adv-x="606" 
d="M153 300q0 67 46.5 113.5t113.5 46.5t113.5 -46.5t46.5 -113.5t-46.5 -113.5t-113.5 -46.5t-113.5 46.5t-46.5 113.5z" />
    <glyph glyph-name="ellipsis" unicode="&#x2026;" horiz-adv-x="1000" 
d="M80 0l24 126h74l-24 -126h-74zM413 0l24 126h74l-24 -126h-74zM746 0l24 126h74l-24 -126h-74z" />
    <glyph glyph-name="perthousand" unicode="&#x2030;" horiz-adv-x="1174" 
d="M157 0l436 740h72l-436 -740h-72zM264 753q72 0 117 -45q41 -42 41 -110q0 -86 -57 -141q-54 -54 -139 -54q-70 0 -113 45q-41 42 -41 110q0 86 57 141q56 54 135 54zM236 469q49 0 83 35q33 35 33 89q0 41 -25 68q-25 26 -69 26q-49 0 -83 -35q-33 -35 -33 -89
q0 -41 25 -68q25 -26 69 -26zM592 337q72 0 117 -45q41 -42 41 -110q0 -86 -57 -141q-54 -54 -139 -54q-70 0 -113 45q-41 42 -41 110q0 86 57 141q56 54 135 54zM564 53q49 0 83 35q33 35 33 89q0 41 -25 68q-25 26 -69 26q-49 0 -83 -35q-33 -35 -33 -89q0 -41 25 -68
q25 -26 69 -26zM991 337q72 0 117 -45q41 -42 41 -110q0 -86 -57 -141q-54 -54 -139 -54q-70 0 -113 45q-41 42 -41 110q0 86 57 141q56 54 135 54zM963 53q49 0 83 35q33 35 33 89q0 41 -25 68q-25 26 -69 26q-49 0 -83 -35q-33 -35 -33 -89q0 -41 25 -68q25 -26 69 -26z
" />
    <glyph glyph-name="guilsinglleft" unicode="&#x2039;" horiz-adv-x="251" 
d="M119 101l-74 200l151 199l52 -31l-133 -172l64 -172z" />
    <glyph glyph-name="guilsinglright" unicode="&#x203a;" horiz-adv-x="251" 
d="M148 500l74 -200l-151 -199l-52 31l133 172l-64 172z" />
    <glyph glyph-name="Euro" unicode="&#x20ac;" 
d="M598 702l-15 -80q-46 59 -142 59q-82 0 -140 -57t-86 -149h295l-32 -62h-283q-2 -6 -5 -21.5t-4 -18.5q-2 -9 -4 -23.5t-3 -18.5h256l-32 -62h-228q-8 -101 29.5 -155.5t116.5 -54.5q91 0 164 60l-16 -82q-62 -49 -171 -49q-105 0 -155.5 70t-40.5 211h-72l33 62h45
q2 18 7 42q7 33 9 40h-66l32 62h51q41 128 117 203t189 75q53 0 93 -15t58 -36z" />
    <glyph glyph-name="afii61352" unicode="&#x2116;" horiz-adv-x="1060" 
d="M24 0l144 740h96l298 -614l120 614h74l-144 -740h-74l-314 650l-126 -650h-74zM968 740q63 0 95.5 -38t32.5 -92q0 -76 -48 -123t-123 -47q-62 0 -95 38t-33 92q0 67 44.5 118.5t126.5 51.5zM935 492q46 0 75.5 31.5t29.5 81.5q0 38 -22 60.5t-60 22.5q-46 0 -75.5 -31
t-29.5 -82q0 -38 22 -60.5t60 -22.5zM767 367h272l-13 -67h-272z" />
    <glyph glyph-name="trademark" unicode="&#x2122;" horiz-adv-x="1000" 
d="M1032 740l-82 -420h-66l70 360l-216 -360h-39l-72 360l-70 -360h-67l82 420h108l63 -303l183 303h106zM498 740l-12 -60h-133l-70 -360h-74l70 360h-134l12 60h341z" />
    <glyph glyph-name="hyphenminus" horiz-adv-x="332" 
d="M46 334h271l-13 -67h-271z" />
    <glyph glyph-name="accent" horiz-adv-x="2" 
d="M-357 669l215 116l31 -58l-215 -114z" />
    <glyph glyph-name="Accent" horiz-adv-x="2" 
d="M-394 836l215 116l31 -58l-215 -114z" />
    </font>
</defs>
</svg>
